# xmcd
#
# Track frame offsets: 
#        150
#        20061
#        34754
#        49289
#        64675
#        80564
#        96869
#        113818
#        128224
#        142637
#        158300
#        172967
#        192843
#        212821
#
# Disc length: 3059 seconds
#
# Revision: 4
# Processed by: cddbd v1.5.2PL0 Copyright (c) Steve Scherf et al.
# Submitted via: ExactAudioCopy v0.95b4
#
DISCID=b50bf10e
DTITLE=Various Artist - Hot Hits Country Vol. 73
DYEAR=1997
DGENRE=Country
TTITLE0=Alan Jackson - Between The Devil And Me
TTITLE1=Deanna Carter - Did I Shave My Legs For This?
TTITLE2=Brooks and Dunn - He's Got You
TTITLE3=Travis Tritt - Still In Love With You
TTITLE4=Diamond Rio - Imagine That
TTITLE5=Lee Ann Womack - You've Got To Talk To Me
TTITLE6=Collin Raye and Jim Brickman - The Gift
TTITLE7=The Lynns - Nights Like These
TTITLE8=Daved Lee Murphy - Just Don't Wait Around Til She's Leavin
TTITLE9=Daryle Singletary - The Note
TTITLE10=Rhett Akins - More Than Everything
TTITLE11=Sammy Kershaw - Love Of My Life
TTITLE12=Anita Cochran w - Steve Wariner
TTITLE13=Kenny Chesney - A Chance
EXTD=
EXTT0=
EXTT1=
EXTT2=
EXTT3=
EXTT4=
EXTT5=
EXTT6=
EXTT7=
EXTT8=
EXTT9=
EXTT10=
EXTT11=
EXTT12=
EXTT13=
PLAYORDER=
